<svg xmlns="http://www.w3.org/2000/svg" viewBox="0 0 610 448" fill="#6d28d9">
  <g transform="translate(0,448) scale(0.1,-0.1)">
    <path d="M5390 4465 c-94 -26 -213 -90 -271 -148 -103 -102 -149 -206 -183
-411 -19 -113 -25 -132 -46 -147 -21 -16 -72 -22 -330 -38 -600 -40 -906 -61
-946 -65 -41 -5 -42 -4 -72 44 -72 115 -216 170 -395 150 -110 -13 -195 -54
-242 -118 -19 -26 -37 -63 -40 -84 l-6 -36 -127 -7 c-70 -3 -179 -10 -242 -15
l-115 -9 -20 26 c-157 207 -320 323 -531 378 -389 102 -837 -38 -1086 -341
-35 -41 -67 -84 -71 -93 -9 -19 -61 -25 -436 -51 -158 -11 -179 -19 -208 -73
-13 -24 -18 -56 -18 -132 0 -108 13 -160 48 -193 18 -17 39 -22 122 -26 55 -2
138 -5 184 -5 l83 -1 -6 -27 c-3 -16 -11 -73 -17 -128 -27 -236 50 -686 190
-1104 181 -542 422 -929 685 -1102 56 -37 121 -70 171 -86 68 -22 98 -27 195
-27 138 0 216 18 349 80 103 48 190 107 297 200 42 36 101 76 145 96 83 39
149 98 149 135 0 28 -16 29 -86 8 -55 -17 -171 -20 -194 -5 -8 5 -12 10 -9 10
17 0 216 63 240 75 40 21 59 43 59 70 0 35 -25 44 -74 28 -51 -18 -171 -28
-222 -18 -50 9 -37 16 95 49 156 40 204 71 186 119 -4 8 -29 24 -56 35 -41 17
-49 25 -49 47 0 21 8 29 43 44 23 10 56 33 74 50 159 158 45 405 -187 405 -53
0 -75 -5 -120 -29 -68 -37 -115 -98 -131 -168 -10 -47 -9 -62 6 -107 24 -73
94 -143 161 -162 38 -10 50 -19 52 -36 3 -21 0 -22 -70 -22 l-73 0 -75 84
c-104 118 -112 135 -107 226 6 116 58 205 157 270 110 70 248 78 366 20 109
-53 180 -144 205 -260 21 -96 -22 -218 -105 -299 l-43 -42 20 -40 c19 -39 19
-39 -1 -77 l-20 -38 24 -27 c29 -34 30 -62 4 -104 -19 -31 -19 -35 -4 -67 15
-31 15 -36 -1 -70 -10 -20 -35 -52 -57 -71 l-40 -34 12 -141 13 -142 41 6 c23
3 80 8 128 12 80 6 87 5 97 -14 14 -26 14 -89 1 -97 -5 -3 -33 -9 -61 -12 -29
-3 -53 -12 -56 -20 -3 -7 -2 -29 1 -48 l7 -35 64 0 63 0 7 -40 c4 -21 4 -48 0
-59 -6 -20 -11 -21 -192 -37 l-73 -6 0 -32 c0 -39 -17 -63 -51 -71 -17 -4 -33
0 -47 12 -21 17 -24 37 -48 318 -14 165 -27 310 -30 322 -2 13 -10 23 -17 23
-7 0 -48 -37 -92 -81 -88 -90 -204 -181 -298 -233 -34 -19 -104 -49 -156 -66
-73 -25 -118 -33 -202 -37 -60 -3 -106 -10 -103 -15 3 -4 67 -49 141 -99 304
-201 642 -326 993 -369 124 -15 429 -12 557 5 223 29 464 99 659 190 423 198
773 547 969 968 214 461 262 1085 125 1637 -30 123 -95 321 -142 434 -15 38
-26 71 -24 74 3 2 58 11 123 18 279 32 835 96 918 105 118 13 150 24 176 61
27 37 37 151 19 217 -13 48 -48 86 -85 93 -13 3 -144 -3 -292 -13 -147 -10
-342 -23 -433 -29 -91 -6 -186 -13 -212 -16 -56 -6 -60 4 -24 57 17 25 52 50
118 84 123 65 226 166 281 276 38 77 72 192 78 264 l4 40 -40 2 c-22 1 -65 -4
-95 -12z m-2271 -871 c30 -39 44 -118 39 -235 -4 -114 -20 -164 -53 -164 -18
0 -21 11 -31 115 -6 63 -19 152 -29 198 -13 65 -14 86 -5 98 19 22 56 17 79
-12z m177 8 c37 -24 53 -148 34 -273 -13 -95 -33 -142 -57 -137 -26 5 -32 49
-34 225 0 115 3 168 11 178 14 16 29 19 46 7z m-1315 -18 c145 -43 284 -160
356 -299 22 -44 44 -91 48 -105 6 -20 0 -17 -30 18 -49 56 -138 116 -201 135
-175 52 -295 -83 -239 -270 20 -68 73 -116 146 -132 149 -34 203 -55 245 -96
51 -49 67 -97 54 -166 -13 -67 -40 -117 -102 -184 -135 -149 -329 -239 -570
-265 -175 -20 -362 10 -489 76 -81 43 -165 128 -174 177 -16 86 68 177 278
301 51 30 110 69 131 88 35 30 40 40 44 90 6 71 -19 157 -58 202 -38 43 -100
68 -167 68 -99 -1 -198 -50 -306 -151 -63 -59 -167 -207 -167 -237 0 -7 -5
-16 -12 -20 -8 -5 -10 18 -5 92 11 185 76 332 202 460 115 116 259 184 392
185 88 1 157 -20 209 -65 l38 -33 31 41 c71 94 210 130 346 90z m1502 -34 c15
-29 18 -53 14 -135 -4 -115 -32 -199 -64 -193 -16 3 -18 20 -21 172 -3 173 3
200 37 194 9 -2 24 -19 34 -38z m876 -210 c7 -30 16 -108 20 -173 30 -423
-117 -921 -358 -1219 -126 -154 -127 -154 -46 7 211 421 321 845 351 1349 4
65 10 112 14 105 4 -8 13 -39 19 -69z m-459 -207 c-54 -197 -140 -418 -226
-579 -112 -211 -225 -361 -383 -509 l-43 -40 26 53 c135 270 209 592 232 1014
3 70 11 121 18 127 6 5 77 14 156 20 222 17 235 17 238 4 2 -7 -6 -47 -18 -90z
m-1000 12 c0 -81 -68 -312 -125 -425 -48 -95 -140 -215 -225 -292 -75 -69 -99
-83 -81 -49 19 35 62 196 77 289 16 102 19 344 6 429 l-9 52 71 5 c92 8 158
12 229 14 55 2 57 1 57 -23z m-710 -58 c24 -17 24 -17 -28 -17 -69 0 -149 19
-130 32 21 14 131 4 158 -15z m-884 -133 c-34 -19 -127 -52 -179 -64 -38 -8
-38 -8 -20 12 32 36 113 68 173 68 l55 -1 -29 -15z m817 -1442 l38 -38 -115
-32 c-138 -39 -267 -56 -351 -47 -90 9 -97 21 -17 28 88 9 224 48 316 91 39
19 76 35 81 35 6 1 28 -16 48 -37z M1683 2939 c-70 -27 -113 -76 -113 -130 0
-33 6 -47 33 -74 83 -83 255 -63 328 38 50 69 34 143 -37 173 -48 20 -149 17
-211 -7z M2002 2688 c-68 -61 -130 -95 -210 -114 -127 -30 -265 -5 -335 61
-20 19 -44 35 -52 35 -23 0 -48 -46 -41 -75 9 -34 82 -80 170 -107 58 -17 85
-20 170 -15 118 7 199 31 283 86 73 48 133 106 133 130 0 19 -30 51 -48 51 -6
0 -38 -24 -70 -52z"/>
  </g>
</svg>
